<svg width="60" height="60" viewBox="0 0 513 513" fill="none" xmlns="http://www.w3.org/2000/svg">
<path d="M256.456 48.719C141.766 48.719 48.4561 142.029 48.4561 256.719C48.4561 371.409 141.766 464.719 256.456 464.719C371.146 464.719 464.456 371.409 464.456 256.719C464.456 142.029 371.146 48.719 256.456 48.719ZM168.456 350.719C163.709 350.719 159.069 349.311 155.122 346.674C151.176 344.037 148.099 340.289 146.283 335.903C144.466 331.518 143.991 326.692 144.917 322.037C145.843 317.381 148.129 313.105 151.485 309.748C154.842 306.392 159.118 304.106 163.774 303.18C168.429 302.254 173.255 302.729 177.64 304.546C182.026 306.362 185.774 309.439 188.411 313.385C191.048 317.332 192.456 321.972 192.456 326.719C192.456 333.084 189.927 339.189 185.427 343.69C180.926 348.19 174.821 350.719 168.456 350.719ZM168.456 279.719C163.709 279.719 159.069 278.311 155.122 275.674C151.176 273.037 148.099 269.289 146.283 264.903C144.466 260.518 143.991 255.692 144.917 251.037C145.843 246.381 148.129 242.105 151.485 238.748C154.842 235.392 159.118 233.106 163.774 232.18C168.429 231.254 173.255 231.729 177.64 233.546C182.026 235.362 185.774 238.439 188.411 242.385C191.048 246.332 192.456 250.972 192.456 255.719C192.456 262.084 189.927 268.189 185.427 272.69C180.926 277.19 174.821 279.719 168.456 279.719ZM168.456 206.719C163.709 206.719 159.069 205.311 155.122 202.674C151.176 200.037 148.099 196.289 146.283 191.903C144.466 187.518 143.991 182.692 144.917 178.037C145.843 173.381 148.129 169.105 151.485 165.748C154.842 162.392 159.118 160.106 163.774 159.18C168.429 158.254 173.255 158.729 177.64 160.546C182.026 162.362 185.774 165.439 188.411 169.385C191.048 173.332 192.456 177.972 192.456 182.719C192.456 189.084 189.927 195.189 185.427 199.69C180.926 204.19 174.821 206.719 168.456 206.719ZM352.456 341.719H224.456C220.213 341.719 216.143 340.033 213.142 337.033C210.142 334.032 208.456 329.963 208.456 325.719C208.456 321.476 210.142 317.406 213.142 314.405C216.143 311.405 220.213 309.719 224.456 309.719H352.456C356.7 309.719 360.769 311.405 363.77 314.405C366.77 317.406 368.456 321.476 368.456 325.719C368.456 329.963 366.77 334.032 363.77 337.033C360.769 340.033 356.7 341.719 352.456 341.719ZM352.456 270.719H224.456C220.213 270.719 216.143 269.033 213.142 266.033C210.142 263.032 208.456 258.963 208.456 254.719C208.456 250.476 210.142 246.406 213.142 243.405C216.143 240.405 220.213 238.719 224.456 238.719H352.456C356.7 238.719 360.769 240.405 363.77 243.405C366.77 246.406 368.456 250.476 368.456 254.719C368.456 258.963 366.77 263.032 363.77 266.033C360.769 269.033 356.7 270.719 352.456 270.719ZM352.456 198.719H224.456C220.213 198.719 216.143 197.033 213.142 194.033C210.142 191.032 208.456 186.963 208.456 182.719C208.456 178.476 210.142 174.406 213.142 171.405C216.143 168.405 220.213 166.719 224.456 166.719H352.456C356.7 166.719 360.769 168.405 363.77 171.405C366.77 174.406 368.456 178.476 368.456 182.719C368.456 186.963 366.77 191.032 363.77 194.033C360.769 197.033 356.7 198.719 352.456 198.719Z" fill="#48534F"/>
</svg>
