<svg width="14" height="14" viewBox="0 0 513 513" fill="none" xmlns="http://www.w3.org/2000/svg">
<path d="M256.737 32.2632C168.407 32.2632 96.7368 96.7732 96.7368 176.263C96.7368 304.263 256.737 480.263 256.737 480.263C256.737 480.263 416.737 304.263 416.737 176.263C416.737 96.7732 345.067 32.2632 256.737 32.2632ZM256.737 256.263C244.079 256.263 231.705 252.51 221.18 245.477C210.656 238.445 202.453 228.449 197.609 216.755C192.765 205.06 191.497 192.192 193.967 179.777C196.436 167.363 202.531 155.959 211.482 147.008C220.433 138.058 231.836 131.962 244.251 129.493C256.666 127.023 269.534 128.291 281.229 133.135C292.923 137.979 302.918 146.182 309.951 156.707C316.983 167.231 320.737 179.605 320.737 192.263C320.718 209.231 313.97 225.499 301.971 237.498C289.973 249.496 273.705 256.245 256.737 256.263Z" fill="#48534F"/>
</svg>
