<svg width="24" height="24" viewBox="0 0 513 513" fill="none" xmlns="http://www.w3.org/2000/svg">
<path d="M350.292 69.6231C375.024 69.697 398.723 79.5547 416.212 97.0433C433.7 114.532 443.558 138.23 443.632 162.963V349.623C443.558 374.356 433.7 398.054 416.212 415.543C398.723 433.032 375.024 442.889 350.292 442.963H163.632C138.899 442.889 115.201 433.032 97.7122 415.543C80.2235 398.054 70.3658 374.356 70.2919 349.623V162.963C70.3658 138.23 80.2235 114.532 97.7122 97.0433C115.201 79.5547 138.899 69.697 163.632 69.6231H350.292ZM350.292 32.2931H163.632C91.7619 32.2931 32.9619 91.0931 32.9619 162.963V349.623C32.9619 421.493 91.7619 480.293 163.632 480.293H350.292C422.162 480.293 480.962 421.493 480.962 349.623V162.963C480.962 91.0931 422.162 32.2931 350.292 32.2931Z" fill="white"/>
<path d="M378.292 162.963C372.754 162.963 367.341 161.321 362.736 158.244C358.131 155.168 354.543 150.795 352.423 145.678C350.304 140.562 349.75 134.932 350.83 129.501C351.91 124.069 354.577 119.08 358.493 115.164C362.409 111.248 367.398 108.582 372.829 107.501C378.261 106.421 383.891 106.975 389.007 109.095C394.123 111.214 398.496 114.803 401.573 119.407C404.65 124.012 406.292 129.425 406.292 134.963C406.3 138.642 405.581 142.287 404.177 145.688C402.772 149.088 400.71 152.178 398.109 154.78C395.507 157.381 392.417 159.444 389.016 160.848C385.616 162.252 381.971 162.971 378.292 162.963ZM256.962 181.623C271.73 181.623 286.167 186.002 298.446 194.207C310.726 202.412 320.296 214.074 325.948 227.718C331.6 241.362 333.078 256.376 330.197 270.861C327.316 285.345 320.204 298.65 309.762 309.093C299.319 319.536 286.014 326.647 271.529 329.528C257.045 332.41 242.031 330.931 228.387 325.279C214.743 319.628 203.081 310.057 194.876 297.778C186.671 285.498 182.292 271.061 182.292 256.293C182.313 236.496 190.187 217.516 204.186 203.517C218.184 189.518 237.165 181.644 256.962 181.623ZM256.962 144.293C234.81 144.293 213.156 150.862 194.738 163.169C176.32 175.475 161.964 192.967 153.487 213.433C145.01 233.898 142.792 256.417 147.114 278.143C151.436 299.869 162.103 319.826 177.766 335.489C193.429 351.153 213.386 361.82 235.112 366.141C256.838 370.463 279.357 368.245 299.822 359.768C320.288 351.291 337.78 336.935 350.087 318.517C362.393 300.099 368.962 278.445 368.962 256.293C368.962 226.589 357.162 198.101 336.158 177.097C315.154 156.093 286.666 144.293 256.962 144.293Z" fill="white"/>
</svg>
