<svg width="18" height="18" viewBox="0 0 513 513" fill="none" xmlns="http://www.w3.org/2000/svg">
<path d="M480.737 128.263C480.737 111.289 473.994 95.0107 461.992 83.0084C449.989 71.006 433.711 64.2632 416.737 64.2632H400.737V48.7132C400.737 40.1032 394.117 32.7132 385.507 32.2832C383.343 32.179 381.181 32.515 379.152 33.271C377.122 34.0271 375.267 35.1873 373.699 36.6814C372.131 38.1755 370.883 39.9724 370.03 41.9632C369.177 43.9541 368.737 46.0973 368.737 48.2632V64.2632H144.737V48.7132C144.737 40.1032 138.117 32.7132 129.507 32.2832C127.343 32.179 125.181 32.515 123.152 33.271C121.122 34.0271 119.267 35.1873 117.699 36.6814C116.131 38.1755 114.883 39.9724 114.03 41.9632C113.177 43.9541 112.737 46.0973 112.737 48.2632V64.2632H96.7368C79.763 64.2632 63.4843 71.006 51.482 83.0084C39.4797 95.0107 32.7368 111.289 32.7368 128.263V140.263C32.7368 141.324 33.1582 142.341 33.9084 143.092C34.6585 143.842 35.676 144.263 36.7368 144.263H476.737C477.798 144.263 478.815 143.842 479.565 143.092C480.315 142.341 480.737 141.324 480.737 140.263V128.263ZM32.7368 416.263C32.7368 433.237 39.4797 449.516 51.482 461.518C63.4843 473.52 79.763 480.263 96.7368 480.263H416.737C433.711 480.263 449.989 473.52 461.992 461.518C473.994 449.516 480.737 433.237 480.737 416.263V179.263C480.737 178.468 480.421 177.704 479.858 177.142C479.296 176.579 478.532 176.263 477.737 176.263H35.7368C34.9412 176.263 34.1781 176.579 33.6155 177.142C33.0529 177.704 32.7368 178.468 32.7368 179.263V416.263ZM376.737 208.263C381.484 208.263 386.124 209.671 390.07 212.308C394.017 214.945 397.093 218.693 398.91 223.079C400.726 227.464 401.202 232.29 400.276 236.945C399.35 241.601 397.064 245.877 393.707 249.234C390.351 252.59 386.075 254.876 381.419 255.802C376.763 256.728 371.938 256.253 367.552 254.436C363.167 252.62 359.419 249.544 356.782 245.597C354.144 241.65 352.737 237.01 352.737 232.263C352.737 225.898 355.265 219.793 359.766 215.293C364.267 210.792 370.372 208.263 376.737 208.263ZM376.737 288.263C381.484 288.263 386.124 289.671 390.07 292.308C394.017 294.945 397.093 298.693 398.91 303.079C400.726 307.464 401.202 312.29 400.276 316.945C399.35 321.601 397.064 325.877 393.707 329.234C390.351 332.59 386.075 334.876 381.419 335.802C376.763 336.728 371.938 336.253 367.552 334.436C363.167 332.62 359.419 329.544 356.782 325.597C354.144 321.65 352.737 317.01 352.737 312.263C352.737 305.898 355.265 299.794 359.766 295.293C364.267 290.792 370.372 288.263 376.737 288.263ZM296.737 208.263C301.484 208.263 306.124 209.671 310.07 212.308C314.017 214.945 317.093 218.693 318.91 223.079C320.726 227.464 321.202 232.29 320.276 236.945C319.35 241.601 317.064 245.877 313.707 249.234C310.351 252.59 306.075 254.876 301.419 255.802C296.763 256.728 291.938 256.253 287.552 254.436C283.167 252.62 279.419 249.544 276.782 245.597C274.144 241.65 272.737 237.01 272.737 232.263C272.737 225.898 275.265 219.793 279.766 215.293C284.267 210.792 290.372 208.263 296.737 208.263ZM296.737 288.263C301.484 288.263 306.124 289.671 310.07 292.308C314.017 294.945 317.093 298.693 318.91 303.079C320.726 307.464 321.202 312.29 320.276 316.945C319.35 321.601 317.064 325.877 313.707 329.234C310.351 332.59 306.075 334.876 301.419 335.802C296.763 336.728 291.938 336.253 287.552 334.436C283.167 332.62 279.419 329.544 276.782 325.597C274.144 321.65 272.737 317.01 272.737 312.263C272.737 305.898 275.265 299.794 279.766 295.293C284.267 290.792 290.372 288.263 296.737 288.263ZM296.737 368.263C301.484 368.263 306.124 369.671 310.07 372.308C314.017 374.945 317.093 378.693 318.91 383.079C320.726 387.464 321.202 392.29 320.276 396.945C319.35 401.601 317.064 405.877 313.707 409.234C310.351 412.59 306.075 414.876 301.419 415.802C296.763 416.728 291.938 416.253 287.552 414.436C283.167 412.62 279.419 409.544 276.782 405.597C274.144 401.65 272.737 397.01 272.737 392.263C272.737 385.898 275.265 379.794 279.766 375.293C284.267 370.792 290.372 368.263 296.737 368.263ZM216.737 288.263C221.484 288.263 226.124 289.671 230.07 292.308C234.017 294.945 237.093 298.693 238.91 303.079C240.726 307.464 241.202 312.29 240.276 316.945C239.35 321.601 237.064 325.877 233.707 329.234C230.351 332.59 226.075 334.876 221.419 335.802C216.763 336.728 211.938 336.253 207.552 334.436C203.167 332.62 199.419 329.544 196.782 325.597C194.144 321.65 192.737 317.01 192.737 312.263C192.737 305.898 195.265 299.794 199.766 295.293C204.267 290.792 210.372 288.263 216.737 288.263ZM216.737 368.263C221.484 368.263 226.124 369.671 230.07 372.308C234.017 374.945 237.093 378.693 238.91 383.079C240.726 387.464 241.202 392.29 240.276 396.945C239.35 401.601 237.064 405.877 233.707 409.234C230.351 412.59 226.075 414.876 221.419 415.802C216.763 416.728 211.938 416.253 207.552 414.436C203.167 412.62 199.419 409.544 196.782 405.597C194.144 401.65 192.737 397.01 192.737 392.263C192.737 385.898 195.265 379.794 199.766 375.293C204.267 370.792 210.372 368.263 216.737 368.263ZM136.737 288.263C141.484 288.263 146.124 289.671 150.07 292.308C154.017 294.945 157.093 298.693 158.91 303.079C160.726 307.464 161.202 312.29 160.276 316.945C159.35 321.601 157.064 325.877 153.707 329.234C150.351 332.59 146.075 334.876 141.419 335.802C136.763 336.728 131.938 336.253 127.552 334.436C123.167 332.62 119.419 329.544 116.782 325.597C114.144 321.65 112.737 317.01 112.737 312.263C112.737 305.898 115.265 299.794 119.766 295.293C124.267 290.792 130.372 288.263 136.737 288.263ZM136.737 368.263C141.484 368.263 146.124 369.671 150.07 372.308C154.017 374.945 157.093 378.693 158.91 383.079C160.726 387.464 161.202 392.29 160.276 396.945C159.35 401.601 157.064 405.877 153.707 409.234C150.351 412.59 146.075 414.876 141.419 415.802C136.763 416.728 131.938 416.253 127.552 414.436C123.167 412.62 119.419 409.544 116.782 405.597C114.144 401.65 112.737 397.01 112.737 392.263C112.737 385.898 115.265 379.794 119.766 375.293C124.267 370.792 130.372 368.263 136.737 368.263Z" fill="#F44730"/>
</svg>
