<svg width="16" height="16" viewBox="0 0 513 513" fill="none" xmlns="http://www.w3.org/2000/svg">
<path d="M16.9631 190.266L45.5431 424.136C46.3452 430.958 49.6268 437.247 54.7637 441.806C59.9006 446.366 66.5344 448.879 73.403 448.866H440.403C447.272 448.879 453.905 446.366 459.042 441.806C464.179 437.247 467.461 430.958 468.263 424.136L496.803 190.266C497.001 188.583 496.84 186.878 496.331 185.262C495.822 183.646 494.977 182.156 493.851 180.89C492.725 179.624 491.344 178.611 489.798 177.918C488.252 177.224 486.577 176.866 484.883 176.866H28.8831C27.1889 176.866 25.5138 177.224 23.9681 177.918C22.4225 178.611 21.0412 179.624 19.9151 180.89C18.7891 182.156 17.9439 183.646 17.4351 185.262C16.9263 186.878 16.7654 188.583 16.9631 190.266ZM464.883 124.866C464.883 117.44 461.933 110.318 456.682 105.067C451.431 99.8159 444.309 96.8659 436.883 96.8659H245.723L197.723 64.8659H76.8831C69.457 64.8659 62.3351 67.8159 57.0841 73.0669C51.833 78.3179 48.8831 85.4398 48.8831 92.8659V144.866H464.883V124.866Z" fill="#48534F"/>
</svg>
