<svg width="14" height="14" viewBox="0 0 513 513" fill="none" xmlns="http://www.w3.org/2000/svg">
<path d="M424.737 80.2632H88.7368C73.8896 80.2791 59.655 86.1842 49.1564 96.6827C38.6578 107.181 32.7527 121.416 32.7368 136.263V376.263C32.7527 391.11 38.6578 405.345 49.1564 415.844C59.655 426.342 73.8896 432.247 88.7368 432.263H424.737C439.584 432.247 453.819 426.342 464.317 415.844C474.816 405.345 480.721 391.11 480.737 376.263V136.263C480.721 121.416 474.816 107.181 464.317 96.6827C453.819 86.1842 439.584 80.2791 424.737 80.2632ZM410.557 172.893L266.557 284.893C263.749 287.076 260.294 288.261 256.737 288.261C253.18 288.261 249.725 287.076 246.917 284.893L102.917 172.893C101.225 171.616 99.8039 170.014 98.7362 168.183C97.6685 166.351 96.9754 164.326 96.6973 162.224C96.4192 160.122 96.5616 157.986 97.1162 155.94C97.6707 153.893 98.6265 151.978 99.9278 150.304C101.229 148.63 102.85 147.232 104.697 146.19C106.543 145.148 108.578 144.484 110.684 144.235C112.789 143.987 114.923 144.159 116.961 144.743C119 145.326 120.902 146.308 122.557 147.633L256.737 251.993L390.917 147.633C394.272 145.099 398.49 143.988 402.658 144.54C406.826 145.091 410.61 147.261 413.19 150.58C415.771 153.9 416.942 158.101 416.449 162.277C415.956 166.452 413.839 170.266 410.557 172.893Z" fill="#F44730"/>
</svg>
