<svg width="16" height="16" viewBox="0 0 513 513" fill="none" xmlns="http://www.w3.org/2000/svg">
<path d="M256.737 256.263C278.888 256.263 300.542 249.695 318.961 237.388C337.379 225.081 351.734 207.589 360.211 187.124C368.688 166.658 370.906 144.139 366.585 122.413C362.263 100.687 351.596 80.7308 335.933 65.0673C320.269 49.4038 300.313 38.7368 278.587 34.4153C256.861 30.0937 234.342 32.3117 213.876 40.7887C193.411 49.2657 175.919 63.6211 163.612 82.0394C151.305 100.458 144.737 122.112 144.737 144.263C144.737 173.967 156.537 202.455 177.541 223.459C198.545 244.463 227.033 256.263 256.737 256.263ZM256.737 288.263C187.317 288.263 48.7368 331.143 48.7368 416.263V480.263H464.737V416.263C464.737 331.143 326.157 288.263 256.737 288.263Z" fill="#F44730"/>
</svg>
