<svg width="24" height="25" viewBox="0 0 24 25" fill="none" xmlns="http://www.w3.org/2000/svg">
<path d="M10.4694 4.04083C14.0409 4.04083 16.898 6.89798 16.898 10.4694C16.898 14.0409 14.0409 16.898 10.4694 16.898C6.89798 16.898 4.04083 14.0409 4.04083 10.4694C4.04083 6.89798 6.89798 4.04083 10.4694 4.04083ZM10.4694 2C5.77553 2 2 5.77553 2 10.4694C2 15.1633 5.77553 18.9389 10.4694 18.9389C15.1633 18.9389 18.9389 15.1633 18.9389 10.4694C18.9389 5.77553 15.1633 2 10.4694 2Z" fill="#202E44"/>
<path d="M20.9796 22.4086C20.6735 22.4086 20.4694 22.3066 20.2653 22.1025L14.9592 16.8984C14.551 16.4902 14.551 15.878 14.9592 15.4698C15.3674 15.0617 15.9796 15.0617 16.3878 15.4698L21.6939 20.6739C22.1021 21.0821 22.1021 21.6943 21.6939 22.1025C21.4898 22.3066 21.2858 22.4086 20.9796 22.4086Z" fill="#202E44"/>
</svg>
